<svg aria-hidden="true" style="width:0;height:0;position:absolute;overflow:hidden" xmlns="http://www.w3.org/2000/svg"><defs><symbol id="icon-close" viewBox="0 0 32 32"><path d="M31.439 3.166 28.273 0 15.719 12.552 3.167 0 .001 3.166l12.552 12.552L.001 28.272l3.166 3.166 12.552-12.554 12.554 12.554 3.166-3.166-12.554-12.554L31.439 3.166z"/></symbol><symbol id="icon-facebook" viewBox="0 0 32 32"><path d="M13.912 11.099v2.203h-1.613v2.693h1.613V24h3.315v-8.005h2.224s.21-1.291.31-2.704h-2.522v-1.84c0-.277.362-.646.72-.646h1.805V8h-2.456c-3.478 0-3.397 2.696-3.397 3.099z"/><path d="M6.4 3.2a3.2 3.2 0 0 0-3.2 3.2v19.2a3.2 3.2 0 0 0 3.2 3.2h19.2a3.2 3.2 0 0 0 3.2-3.2V6.4a3.2 3.2 0 0 0-3.2-3.2H6.4zm0-3.2h19.2A6.4 6.4 0 0 1 32 6.4v19.2a6.4 6.4 0 0 1-6.4 6.4H6.4A6.4 6.4 0 0 1 0 25.6V6.4A6.4 6.4 0 0 1 6.4 0z"/></symbol><symbol id="icon-instagram" viewBox="0 0 32 32"><path d="M9.404.096C11.11.017 11.654 0 16 0s4.89.019 6.595.096 2.868.349 3.887.743a7.88 7.88 0 0 1 2.833 1.847 7.803 7.803 0 0 1 1.844 2.832c.396 1.018.666 2.182.745 3.884.079 1.709.096 2.253.096 6.598 0 4.346-.019 4.89-.096 6.596-.077 1.702-.349 2.865-.745 3.884a7.889 7.889 0 0 1-1.843 2.834l-.001.001a7.832 7.832 0 0 1-2.833 1.844c-1.018.396-2.182.666-3.884.745C20.89 31.983 20.346 32 16 32s-4.89-.019-6.596-.096c-1.702-.077-2.865-.349-3.884-.745a7.889 7.889 0 0 1-2.834-1.843l-.001-.001a7.857 7.857 0 0 1-1.828-2.78l-.018-.054c-.394-1.018-.665-2.182-.743-3.884C.017 20.888 0 20.344 0 15.999c0-4.346.019-4.89.096-6.595s.349-2.868.743-3.887a7.879 7.879 0 0 1 1.846-2.832l.001-.001A7.872 7.872 0 0 1 5.464.856l.054-.018C6.536.444 7.7.173 9.402.095h.001zm13.061 2.88c-1.687-.077-2.193-.093-6.465-.093s-4.778.016-6.465.093c-1.561.071-2.407.332-2.972.551a4.972 4.972 0 0 0-1.84 1.196 4.964 4.964 0 0 0-1.184 1.806l-.011.034c-.22.564-.48 1.411-.551 2.972-.077 1.687-.093 2.193-.093 6.465s.016 4.778.093 6.465c.071 1.561.332 2.407.551 2.972a4.962 4.962 0 0 0 1.196 1.84c.516.531 1.146.94 1.84 1.196.564.22 1.411.48 2.972.551 1.687.077 2.192.093 6.465.093s4.778-.016 6.465-.093c1.561-.071 2.407-.332 2.972-.551a4.972 4.972 0 0 0 1.84-1.196 4.962 4.962 0 0 0 1.196-1.84c.22-.564.48-1.411.551-2.972.077-1.687.093-2.193.093-6.465s-.016-4.778-.093-6.465c-.071-1.561-.332-2.407-.551-2.972a4.972 4.972 0 0 0-1.196-1.84 4.964 4.964 0 0 0-1.806-1.184l-.034-.011c-.564-.22-1.411-.48-2.972-.551zm-8.509 17.956a5.338 5.338 0 1 0 3.878-9.946l-.037-.012a5.338 5.338 0 0 0-3.876 9.944l.035.013zm-3.771-10.747a8.224 8.224 0 1 1 11.63 11.63 8.224 8.224 0 1 1-11.63-11.63zm15.863-1.184a1.944 1.944 0 1 0-2.669-2.827l.001-.001A1.944 1.944 0 1 0 26.049 9l-.001.001z"/></symbol><symbol id="icon-left" viewBox="0 0 32 32"><path d="M32 14.923H4.096l6.421-6.465-1.515-1.524-9.003 9.067 9.003 9.067 1.514-1.524-6.42-6.464H32v-2.156z"/></symbol><symbol id="icon-map" viewBox="0 0 32 32"><path d="M16 .656h-.016A9.584 9.584 0 0 0 6.4 10.24c0 9.166 9.6 21.12 9.6 21.12s9.6-11.957 9.6-21.12A9.584 9.584 0 0 0 16.016.656h-.017H16zm0 14.883a5.184 5.184 0 0 1 0-10.368 5.184 5.184 0 0 1 0 10.368z"/></symbol><symbol id="icon-phone" viewBox="0 0 32 32"><path d="M22 0a3.6 3.6 0 0 1 3.6 3.6v24.8A3.6 3.6 0 0 1 22 32H10a3.6 3.6 0 0 1-3.6-3.6V3.6A3.6 3.6 0 0 1 10 0h12zm0 2.4H10a1.2 1.2 0 0 0-1.2 1.2v24.8c0 .662.538 1.2 1.2 1.2h12a1.2 1.2 0 0 0 1.2-1.2V3.6A1.2 1.2 0 0 0 22 2.4zm-4.002 22.4H18a1.2 1.2 0 0 1 .002 2.4l-4 .006H14a1.2 1.2 0 0 1-.002-2.4l4-.006z"/></symbol><symbol id="icon-right" viewBox="0 0 32 32"><path d="m22.997 6.933-1.515 1.524 6.421 6.464H-.001v2.156h27.904l-6.421 6.465 1.515 1.524L32 15.999l-9.003-9.067z"/></symbol><symbol id="icon-telegram" viewBox="0 0 32 32"><path d="M29.683 2.395c-.411.03-.792.126-1.143.276l.023-.009h-.003c-.342.136-1.968.819-4.44 1.856l-8.859 3.731-12.605 5.312.075-.029s-.432.141-.88.448c-.28.178-.518.41-.704.682a1.974 1.974 0 0 0-.332 1.342l-.001-.009c.107.866.669 1.386 1.072 1.672.408.291.797.426.797.426h.01l5.861 1.974c.262.843 1.786 5.85 2.15 7.003.216.688.427 1.12.69 1.448.128.168.275.309.454.422.093.054.192.096.296.128l-.061-.016c.018.005.032.019.046.024.048.013.08.018.141.027.928.282 1.674-.294 1.674-.294l.042-.034 3.459-3.15 5.798 4.448.133.058c1.208.53 2.432.235 3.078-.286.653-.525.906-1.195.906-1.195l.042-.107 4.48-22.955c.128-.566.16-1.098.021-1.611a2.178 2.178 0 0 0-.938-1.258 2.221 2.221 0 0 0-1.286-.323h.006zm-.12 2.459c-.005.077.01.067-.024.213v.013l-4.438 22.717c-.021.032-.053.102-.141.174-.094.074-.168.12-.558-.034l-7.091-5.438-4.285 3.904.899-5.747 11.587-10.8c.478-.443.32-.538.32-.538.032-.544-.722-.16-.722-.16l-14.614 9.054-.005-.024-7.019-2.368a.256.256 0 0 0 .037-.017l-.002.001.038-.018.037-.013 12.61-5.312c3.182-1.341 6.389-2.69 8.854-3.731a926.717 926.717 0 0 1 4.392-1.837c.099-.038.053-.04.123-.04z"/></symbol><symbol id="icon-arrow-right" viewBox="0 0 54 34"><path d="M38.558 1.576 36.134 4l10.285 10.285H1.714v3.429h44.704L36.133 27.999l2.424 2.424 14.424-14.424L38.557 1.575z"/></symbol><symbol id="icon-close-prices" viewBox="0 0 32 32"><path d="M7.219 5.781 5.781 7.219 14.562 16l-8.781 8.781 1.438 1.438L16 17.438l8.781 8.781 1.438-1.438L17.438 16l8.781-8.781-1.438-1.438L16 14.562z"/><symbol id="icon-wedge" viewBox="0 0 53 32"><path d="M1.211 2.504a3.999 3.999 0 0 1 5.656 0l19.8 19.8 19.8-19.8a3.999 3.999 0 0 1 5.656 5.656L29.495 30.788a3.999 3.999 0 0 1-5.656 0L1.211 8.16a3.999 3.999 0 0 1 0-5.656z"/></symbol><symbol id="icon-arrow-left-orange" viewBox="0 0 32 32"><path fill="#f3c653" style="fill:var(--color1,#f3c653)" d="M31 15.49H4.84l6.019-6.061L9.44 8 1 16.5 9.44 25l1.419-1.429L4.84 17.51H31v-2.021z"/></symbol><symbol id="icon-arrow-right-orange" viewBox="0 0 32 32"><path fill="#f3c653" style="fill:var(--color1,#f3c653)" d="M22.559 8 21.14 9.429l6.019 6.061H.999v2.021h26.159l-6.018 6.061 1.419 1.429 8.441-8.5-8.441-8.5z"/></symbol></symbol></defs></svg>